PathFileType	4	(X/Y/Z)	c:/Users/goper/Files/vsCode/490R/osim_files/C08/C08_Fast_02.trc
DataRate	CameraRate	NumFrames	NumMarkers	Units                	OrigDataRate	OrigDataStartFrame	OrigNumFrames
250.00	250.00	12	36	mm	250.0	534	2135
                Frame#	Time	LPSIS			LASIS			LTH1			LTH2			LTH3			LTH4			LLFE			LMFE			LSH1			LSH2			LSH3			LSH4			LLMAL			LMMAL			LCAL			LMTP5			LTOE			LMTP1			RPSIS			RASIS			RTH1			RTH2			RTH3			RTH4			RLFE			RMFE			RSH1			RSH2			RSH3			RSH4			RLMAL			RMMAL			RCAL			RMTP1			RTOE			RMTP5		
		X1	Y1	Z1	X2	Y2	Z2	X3	Y3	Z3	X4	Y4	Z4	X5	Y5	Z5	X6	Y6	Z6	X7	Y7	Z7	X8	Y8	Z8	X9	Y9	Z9	X10	Y10	Z10	X11	Y11	Z11	X12	Y12	Z12	X13	Y13	Z13	X14	Y14	Z14	X15	Y15	Z15	X16	Y16	Z16	X17	Y17	Z17	X18	Y18	Z18	X19	Y19	Z19	X20	Y20	Z20	X21	Y21	Z21	X22	Y22	Z22	X23	Y23	Z23	X24	Y24	Z24	X25	Y25	Z25	X26	Y26	Z26	X27	Y27	Z27	X28	Y28	Z28	X29	Y29	Z29	X30	Y30	Z30	X31	Y31	Z31	X32	Y32	Z32	X33	Y33	Z33	X34	Y34	Z34	X35	Y35	Z35	X36	Y36	Z36

534	2.13200	2506.15601	1067.17896	231.91876	0.00000	0.00000	0.00000	2372.13745	748.71008	385.83719	2367.06787	671.75909	367.48441	0.00000	0.00000	0.00000	0.00000	0.00000	0.00000	0.00000	0.00000	0.00000	0.00000	0.00000	0.00000	2415.42065	423.88040	364.54599	2412.63745	377.92914	364.59125	0.00000	0.00000	0.00000	0.00000	0.00000	0.00000	2415.68726	102.28963	310.95447	0.00000	0.00000	0.00000	0.00000	0.00000	0.00000	0.00000	0.00000	0.00000	0.00000	0.00000	0.00000	0.00000	0.00000	0.00000	2505.57788	1060.06763	176.18718	0.00000	0.00000	0.00000	0.00000	0.00000	0.00000	3140.50269	878.52850	307.87775	0.00000	0.00000	0.00000	0.00000	0.00000	0.00000	0.00000	0.00000	0.00000	0.00000	0.00000	0.00000	0.00000	0.00000	0.00000	0.00000	0.00000	0.00000	0.00000	0.00000	0.00000	0.00000	0.00000	0.00000	0.00000	0.00000	0.00000	0.00000	0.00000	0.00000	0.00000	0.00000	0.00000	0.00000	0.00000	0.00000	0.00000	0.00000	0.00000	0.00000	0.00000	0.00000
535	2.13600	2500.79541	1067.73999	232.37604	0.00000	0.00000	0.00000	2368.80371	748.82666	385.92996	2364.41699	671.85120	367.48865	0.00000	0.00000	0.00000	0.00000	0.00000	0.00000	0.00000	0.00000	0.00000	0.00000	0.00000	0.00000	2414.60986	424.07794	364.49442	2411.93726	378.11359	364.52774	0.00000	0.00000	0.00000	0.00000	0.00000	0.00000	2415.55298	102.44024	310.83493	0.00000	0.00000	0.00000	0.00000	0.00000	0.00000	0.00000	0.00000	0.00000	0.00000	0.00000	0.00000	0.00000	0.00000	0.00000	2500.36255	1060.67798	176.51387	0.00000	0.00000	0.00000	0.00000	0.00000	0.00000	3140.02246	878.05597	307.89502	0.00000	0.00000	0.00000	0.00000	0.00000	0.00000	0.00000	0.00000	0.00000	0.00000	0.00000	0.00000	0.00000	0.00000	0.00000	0.00000	0.00000	0.00000	0.00000	0.00000	0.00000	0.00000	0.00000	0.00000	0.00000	0.00000	0.00000	0.00000	0.00000	0.00000	0.00000	0.00000	0.00000	0.00000	0.00000	0.00000	0.00000	0.00000	0.00000	0.00000	0.00000	0.00000
536	2.14000	2495.42480	1068.22192	232.86746	0.00000	0.00000	0.00000	2365.49731	748.94000	386.01196	2361.77637	671.86871	367.53458	0.00000	0.00000	0.00000	0.00000	0.00000	0.00000	0.00000	0.00000	0.00000	0.00000	0.00000	0.00000	2413.73340	424.16891	364.39444	2411.18481	378.20776	364.44766	0.00000	0.00000	0.00000	0.00000	0.00000	0.00000	2414.66406	102.23833	309.95233	0.00000	0.00000	0.00000	0.00000	0.00000	0.00000	0.00000	0.00000	0.00000	0.00000	0.00000	0.00000	0.00000	0.00000	0.00000	2495.17603	1061.24438	176.86517	0.00000	0.00000	0.00000	0.00000	0.00000	0.00000	3139.52319	877.54706	307.98941	0.00000	0.00000	0.00000	0.00000	0.00000	0.00000	0.00000	0.00000	0.00000	0.00000	0.00000	0.00000	0.00000	0.00000	0.00000	0.00000	0.00000	0.00000	0.00000	0.00000	0.00000	0.00000	0.00000	0.00000	0.00000	0.00000	0.00000	0.00000	0.00000	0.00000	0.00000	0.00000	0.00000	0.00000	0.00000	0.00000	0.00000	0.00000	0.00000	0.00000	0.00000	0.00000
537	2.14400	2490.07812	1068.62585	233.35590	0.00000	0.00000	0.00000	2362.01099	748.85522	386.08923	2359.13135	671.91553	367.57681	0.00000	0.00000	0.00000	0.00000	0.00000	0.00000	0.00000	0.00000	0.00000	0.00000	0.00000	0.00000	2412.89478	424.36478	364.33112	2410.44653	378.35757	364.38696	0.00000	0.00000	0.00000	0.00000	0.00000	0.00000	2414.51367	102.33047	309.82065	0.00000	0.00000	0.00000	0.00000	0.00000	0.00000	0.00000	0.00000	0.00000	0.00000	0.00000	0.00000	0.00000	0.00000	0.00000	2489.95752	1061.74768	177.24579	0.00000	0.00000	0.00000	0.00000	0.00000	0.00000	3139.00122	877.01331	308.07050	0.00000	0.00000	0.00000	0.00000	0.00000	0.00000	0.00000	0.00000	0.00000	0.00000	0.00000	0.00000	0.00000	0.00000	0.00000	0.00000	0.00000	0.00000	0.00000	0.00000	0.00000	0.00000	0.00000	0.00000	0.00000	0.00000	0.00000	0.00000	0.00000	0.00000	0.00000	0.00000	0.00000	0.00000	0.00000	0.00000	0.00000	0.00000	0.00000	0.00000	0.00000	0.00000
538	2.14800	2484.72534	1069.03467	233.83208	0.00000	0.00000	0.00000	2358.59985	748.86261	386.19861	2356.45044	671.87750	367.62448	0.00000	0.00000	0.00000	0.00000	0.00000	0.00000	0.00000	0.00000	0.00000	0.00000	0.00000	0.00000	2412.00317	424.51501	364.29575	2409.72900	378.51797	364.35721	0.00000	0.00000	0.00000	0.00000	0.00000	0.00000	2414.37378	102.41940	309.70013	0.00000	0.00000	0.00000	0.00000	0.00000	0.00000	0.00000	0.00000	0.00000	0.00000	0.00000	0.00000	0.00000	0.00000	0.00000	2484.79102	1062.19067	177.61205	0.00000	0.00000	0.00000	0.00000	0.00000	0.00000	3138.52612	876.54614	308.11746	0.00000	0.00000	0.00000	0.00000	0.00000	0.00000	0.00000	0.00000	0.00000	0.00000	0.00000	0.00000	0.00000	0.00000	0.00000	0.00000	0.00000	0.00000	0.00000	0.00000	0.00000	0.00000	0.00000	0.00000	0.00000	0.00000	0.00000	0.00000	0.00000	0.00000	0.00000	0.00000	0.00000	0.00000	0.00000	0.00000	0.00000	0.00000	0.00000	0.00000	0.00000	0.00000
539	2.15200	2479.37231	1069.35876	234.33839	0.00000	0.00000	0.00000	2355.29248	748.96039	386.33475	2353.69604	671.78418	367.68857	0.00000	0.00000	0.00000	0.00000	0.00000	0.00000	0.00000	0.00000	0.00000	0.00000	0.00000	0.00000	2411.06787	424.64264	364.22916	2408.91431	378.57571	364.31696	0.00000	0.00000	0.00000	0.00000	0.00000	0.00000	2414.22388	102.52207	309.61539	0.00000	0.00000	0.00000	0.00000	0.00000	0.00000	0.00000	0.00000	0.00000	0.00000	0.00000	0.00000	0.00000	0.00000	0.00000	2479.55054	1062.57178	178.01625	0.00000	0.00000	0.00000	0.00000	0.00000	0.00000	3137.82104	875.80756	308.20786	0.00000	0.00000	0.00000	0.00000	0.00000	0.00000	0.00000	0.00000	0.00000	0.00000	0.00000	0.00000	0.00000	0.00000	0.00000	0.00000	0.00000	0.00000	0.00000	0.00000	0.00000	0.00000	0.00000	0.00000	0.00000	0.00000	0.00000	0.00000	0.00000	0.00000	0.00000	0.00000	0.00000	0.00000	0.00000	0.00000	0.00000	0.00000	0.00000	0.00000	0.00000	0.00000
540	2.15600	2474.03174	1069.61877	234.82794	0.00000	0.00000	0.00000	2351.87183	748.93054	386.47809	2350.97192	671.75769	367.75061	0.00000	0.00000	0.00000	0.00000	0.00000	0.00000	0.00000	0.00000	0.00000	0.00000	0.00000	0.00000	2410.15088	424.81454	364.14865	2408.11279	378.75531	364.27081	0.00000	0.00000	0.00000	0.00000	0.00000	0.00000	2414.04614	102.66157	309.51923	0.00000	0.00000	0.00000	0.00000	0.00000	0.00000	0.00000	0.00000	0.00000	0.00000	0.00000	0.00000	0.00000	0.00000	0.00000	2474.38696	1062.91101	178.38777	0.00000	0.00000	0.00000	0.00000	0.00000	0.00000	3137.11646	875.08356	308.24567	0.00000	0.00000	0.00000	0.00000	0.00000	0.00000	0.00000	0.00000	0.00000	0.00000	0.00000	0.00000	0.00000	0.00000	0.00000	0.00000	0.00000	0.00000	0.00000	0.00000	0.00000	0.00000	0.00000	0.00000	0.00000	0.00000	0.00000	2480.35791	213.56956	181.18977	0.00000	0.00000	0.00000	0.00000	0.00000	0.00000	0.00000	0.00000	0.00000	0.00000	0.00000	0.00000
541	2.16000	2468.71021	1069.84436	235.28886	0.00000	0.00000	0.00000	2348.38867	748.83771	386.58817	2348.28174	671.73529	367.88083	0.00000	0.00000	0.00000	0.00000	0.00000	0.00000	0.00000	0.00000	0.00000	0.00000	0.00000	0.00000	2409.22583	425.00861	364.17593	2407.28320	378.91205	364.27811	0.00000	0.00000	0.00000	0.00000	0.00000	0.00000	2413.91724	102.82730	309.45605	0.00000	0.00000	0.00000	0.00000	0.00000	0.00000	0.00000	0.00000	0.00000	0.00000	0.00000	0.00000	0.00000	0.00000	0.00000	2469.18164	1063.22388	178.73959	0.00000	0.00000	0.00000	0.00000	0.00000	0.00000	3136.42480	874.40125	308.28848	0.00000	0.00000	0.00000	0.00000	0.00000	0.00000	0.00000	0.00000	0.00000	0.00000	0.00000	0.00000	0.00000	0.00000	0.00000	0.00000	0.00000	0.00000	0.00000	0.00000	0.00000	0.00000	0.00000	0.00000	0.00000	0.00000	0.00000	2465.87598	210.31660	181.65474	0.00000	0.00000	0.00000	0.00000	0.00000	0.00000	0.00000	0.00000	0.00000	0.00000	0.00000	0.00000
542	2.16400	2463.39844	1070.00049	235.74971	0.00000	0.00000	0.00000	2344.43506	748.31042	386.04376	2345.49487	671.64551	367.97363	0.00000	0.00000	0.00000	0.00000	0.00000	0.00000	0.00000	0.00000	0.00000	0.00000	0.00000	0.00000	2408.16187	425.08221	364.13770	2406.40381	379.02240	364.25745	0.00000	0.00000	0.00000	0.00000	0.00000	0.00000	2413.77197	102.96554	309.40173	0.00000	0.00000	0.00000	0.00000	0.00000	0.00000	0.00000	0.00000	0.00000	0.00000	0.00000	0.00000	0.00000	0.00000	0.00000	2463.96265	1063.47351	179.13715	0.00000	0.00000	0.00000	0.00000	0.00000	0.00000	3135.60156	873.55487	308.33771	0.00000	0.00000	0.00000	0.00000	0.00000	0.00000	0.00000	0.00000	0.00000	0.00000	0.00000	0.00000	0.00000	0.00000	0.00000	0.00000	0.00000	0.00000	0.00000	0.00000	0.00000	0.00000	0.00000	0.00000	0.00000	0.00000	0.00000	2451.36084	207.01326	182.12445	0.00000	0.00000	0.00000	0.00000	0.00000	0.00000	0.00000	0.00000	0.00000	0.00000	0.00000	0.00000
543	2.16800	2458.08472	1070.15942	236.18146	0.00000	0.00000	0.00000	2341.63379	748.79706	386.93845	2342.75171	671.59265	368.05734	0.00000	0.00000	0.00000	0.00000	0.00000	0.00000	0.00000	0.00000	0.00000	0.00000	0.00000	0.00000	2407.17920	425.31329	364.11050	2405.50195	379.15842	364.22183	0.00000	0.00000	0.00000	0.00000	0.00000	0.00000	2413.62378	103.12940	309.32135	0.00000	0.00000	0.00000	0.00000	0.00000	0.00000	0.00000	0.00000	0.00000	0.00000	0.00000	0.00000	0.00000	0.00000	0.00000	2458.72021	1063.71069	179.47527	0.00000	0.00000	0.00000	0.00000	0.00000	0.00000	3134.69263	872.62280	308.35114	0.00000	0.00000	0.00000	0.00000	0.00000	0.00000	0.00000	0.00000	0.00000	0.00000	0.00000	0.00000	0.00000	0.00000	0.00000	0.00000	0.00000	0.00000	0.00000	0.00000	0.00000	0.00000	0.00000	0.00000	0.00000	0.00000	0.00000	2436.63672	203.62447	182.49568	0.00000	0.00000	0.00000	0.00000	0.00000	0.00000	0.00000	0.00000	0.00000	0.00000	0.00000	0.00000
544	2.17200	2452.79663	1070.21179	236.59152	0.00000	0.00000	0.00000	2338.21069	748.70038	387.08298	2340.01343	671.52325	368.18744	0.00000	0.00000	0.00000	0.00000	0.00000	0.00000	0.00000	0.00000	0.00000	0.00000	0.00000	0.00000	2406.07422	425.40720	364.13651	2404.58057	379.25873	364.21838	0.00000	0.00000	0.00000	0.00000	0.00000	0.00000	2413.41357	103.26833	309.26242	0.00000	0.00000	0.00000	0.00000	0.00000	0.00000	0.00000	0.00000	0.00000	0.00000	0.00000	0.00000	0.00000	0.00000	0.00000	2453.53540	1063.89978	179.83217	0.00000	0.00000	0.00000	0.00000	0.00000	0.00000	3133.76196	871.65839	308.35648	0.00000	0.00000	0.00000	0.00000	0.00000	0.00000	0.00000	0.00000	0.00000	0.00000	0.00000	0.00000	0.00000	0.00000	0.00000	0.00000	0.00000	0.00000	0.00000	0.00000	0.00000	0.00000	0.00000	0.00000	0.00000	0.00000	0.00000	2421.80151	200.21092	182.84053	0.00000	0.00000	0.00000	0.00000	0.00000	0.00000	0.00000	0.00000	0.00000	0.00000	0.00000	0.00000
545	2.17600	2447.50244	1070.26172	237.00645	0.00000	0.00000	0.00000	2334.82935	748.61835	387.22937	2337.23682	671.41626	368.28134	0.00000	0.00000	0.00000	0.00000	0.00000	0.00000	0.00000	0.00000	0.00000	0.00000	0.00000	0.00000	2404.96143	425.53061	364.14105	2403.55664	379.32816	364.22119	0.00000	0.00000	0.00000	0.00000	0.00000	0.00000	2413.22632	103.46613	309.18451	0.00000	0.00000	0.00000	0.00000	0.00000	0.00000	0.00000	0.00000	0.00000	0.00000	0.00000	0.00000	0.00000	0.00000	0.00000	2448.30151	1064.02734	180.12871	0.00000	0.00000	0.00000	0.00000	0.00000	0.00000	3132.77246	870.61993	308.41330	0.00000	0.00000	0.00000	0.00000	0.00000	0.00000	0.00000	0.00000	0.00000	0.00000	0.00000	0.00000	0.00000	0.00000	0.00000	0.00000	0.00000	0.00000	0.00000	0.00000	0.00000	0.00000	0.00000	0.00000	0.00000	0.00000	0.00000	2406.86450	196.74477	183.14084	0.00000	0.00000	0.00000	0.00000	0.00000	0.00000	0.00000	0.00000	0.00000	0.00000	0.00000	0.00000
